<svg xmlns="http://www.w3.org/2000/svg" xmlns:xlink="http://www.w3.org/1999/xlink" version="1.1" x="0px" y="0px" viewBox="0 0 30 33.35375" xml:space="preserve"><g><path fill="red" d="M29.463,22.728L17.283,1.632c-1.254-2.176-3.311-2.176-4.567,0L0.536,22.728c-1.257,2.176-0.229,3.955,2.285,3.955h24.359   C29.693,26.683,30.72,24.903,29.463,22.728z M16.195,22.81c-0.336,0.33-0.724,0.496-1.186,0.496c-0.47,0-0.873-0.166-1.201-0.496   c-0.327-0.332-0.499-0.732-0.499-1.201c0-0.459,0.172-0.854,0.499-1.186c0.328-0.332,0.731-0.5,1.201-0.5   c0.462,0,0.85,0.168,1.186,0.5c0.327,0.332,0.492,0.727,0.492,1.186C16.687,22.077,16.522,22.478,16.195,22.81z M15.382,18.675   H14.62c-1.021-6.123-1.529-9.432-1.529-9.916c0-0.59,0.195-1.066,0.591-1.428c0.387-0.365,0.835-0.543,1.327-0.543   c0.528,0,0.976,0.188,1.349,0.578c0.366,0.385,0.553,0.844,0.553,1.371C16.91,9.235,16.404,12.552,15.382,18.675z"/></g><!-- text x="0" y="41.683" fill="#000000" font-size="5px" font-weight="bold" font-family="'Helvetica Neue', Helvetica, Arial-Unicode, Arial, Sans-serif">Created by Gan Khoon Lay</text><text x="0" y="46.683" fill="#000000" font-size="5px" font-weight="bold" font-family="'Helvetica Neue', Helvetica, Arial-Unicode, Arial, Sans-serif">from the Noun Project</text --></svg>
